<?xml version="1.0" encoding="utf-8"?>
<!-- Generator: Adobe Illustrator 20.1.0, SVG Export Plug-In . SVG Version: 6.00 Build 0)  -->
<!DOCTYPE svg PUBLIC "-//W3C//DTD SVG 1.1//EN" "http://www.w3.org/Graphics/SVG/1.1/DTD/svg11.dtd">
<svg version="1.1" id="Layer_1" xmlns="http://www.w3.org/2000/svg" xmlns:xlink="http://www.w3.org/1999/xlink" x="0px" y="0px"
	 viewBox="0 0 300 300" enable-background="new 0 0 300 300" xml:space="preserve">
<g>
	<g>
		<path fill="#ffffff" d="M123.3,196.2v-92.3l80,46.2L123.3,196.2z M128.9,113.5v73l63.2-36.5L128.9,113.5z"/>
	</g>
	<g>
		<path fill="#ffffff" d="M150,252.4c-56.5,0-102.4-46-102.4-102.4c0-56.5,46-102.4,102.4-102.4s102.4,46,102.4,102.4
			C252.4,206.5,206.5,252.4,150,252.4z M150,53.1c-53.4,0-96.9,43.5-96.9,96.9c0,53.4,43.5,96.9,96.9,96.9
			c53.4,0,96.9-43.5,96.9-96.9C246.9,96.6,203.4,53.1,150,53.1z"/>
	</g>
</g>
</svg>
