<?xml version="1.0" encoding="utf-8"?>
<!-- Generator: Adobe Illustrator 20.1.0, SVG Export Plug-In . SVG Version: 6.00 Build 0)  -->
<!DOCTYPE svg PUBLIC "-//W3C//DTD SVG 1.1//EN" "http://www.w3.org/Graphics/SVG/1.1/DTD/svg11.dtd">
<svg version="1.1" id="Layer_1" xmlns="http://www.w3.org/2000/svg" xmlns:xlink="http://www.w3.org/1999/xlink" x="0px" y="0px"
	 viewBox="0 0 300 300" style="enable-background:new 0 0 300 300;" xml:space="preserve">
<path fill="#df8026" d="M137.7,51c13.1-11.5,26-9.3,35.3,5.7c17.2-4.9,23.4-2.8,30,10.2c4-0.4,8-1.5,11.8-1.1c10.4,1.2,17,10.5,15,20.8
	c-2.7,13.7-5.9,27.3-8.5,41.1c-0.5,2.7,0.5,5.7,0.8,8.5c2,17.7-3.6,32.9-15.3,46.2c-1.8,2.1-3.1,5.3-3.1,8.1
	c-0.3,17.2-0.3,34.3-0.1,51.5c0.1,4.8-1.5,6.4-6.3,6.4c-28.7-0.2-57.5-0.2-86.2,0c-4.9,0-6.3-1.9-6.2-6.5
	c0.2-17.7-0.1-35.5,0.2-53.2c0.1-4.7-1.4-7.9-4.7-11c-8.4-8-16.5-16.2-24.6-24.5c-10.8-10.9-10.8-23.7,0-34.7
	c5.4-5.5,11.1-10.7,16.2-16.5c2.2-2.4,3.9-5.7,4.6-8.9c2.3-10.9,4.2-21.9,5.8-32.9c1.2-8.3,5.5-14.1,13.4-16.4
	c7.8-2.4,14.8-0.3,20.4,6C136.5,50.1,137,50.4,137.7,51z M112.3,240.5c28.5,0,56.2,0,84.1,0c0-17.6,0.1-34.8-0.1-51.9
	c-0.1-4.3,1.1-7.5,4.2-10.7c11.8-12,16.4-26.5,14.1-42.5c-4.9-0.3-9.7,0.4-13.8-1c-4.1-1.4-7.5-4.9-11.4-7.6
	c-11.2,6.4-19.3,4.9-29.3-5.5c-0.5,1.5-0.8,3.3,0,4.3c1.6,2.1,3.8,3.8,5.6,5.8c7.7,8.5,7.2,14.7-2.1,21.7c-2.7,2-2.9,3.6-2.1,6.7
	c2.9,11.3,1.3,22.2-4,32.5c-0.8,1.6-2.3,3-3.8,3.8c-0.7,0.4-3.2-0.6-3.3-1.2c-0.3-1.7-0.3-3.8,0.5-5.3c4.3-8.8,6-17.9,3.7-27.4
	c-0.4-1.6-1.7-4.1-2.8-4.2c-15.1-1.4-26-10.9-37.6-19.1c-2.4-1.7-5.4-3.7-3.1-6.9c2.4-3.4,5-0.7,7.4,0.9c7.6,5,14.8,10.5,22.8,14.6
	c3.9,2,9.4,2.7,13.8,1.9c9.1-1.8,10.4-7.6,3.9-14.1c-10.8-10.8-21.5-21.6-32.4-32.3c-8.5-8.4-16.5-8.3-25.1,0.2
	c-6.7,6.7-13.4,13.3-20,20.1c-8.5,8.6-8.6,16.6-0.1,25.1c7.1,7.1,13.8,14.7,21.5,21.1c7.4,6.3,10.2,13.3,9.7,23
	C111.7,208.2,112.3,224.2,112.3,240.5z M166.4,66.9c0.1-9.3-4.5-14.9-11.2-15.7c-6.8-0.8-12.8,3.4-14.3,10.5
	c-1.4,6.6-3.2,14.8-3.7,19.8c-0.6,5.4-0.7,10.9,0.4,16.2c0.8,3.6,2.3,7,4.5,9.9c2.2,2.9,5.3,4.9,7.5,7.8c2.5,3.1,5,2.2,6.4-0.6
	c1.7-3.5,3-7.4,3.8-11.3C162.3,90.8,164.5,77.9,166.4,66.9z M166.4,109c-0.2,8,3.5,12.9,9,13.9c6.5,1.1,12.4-2.2,13.7-8.6
	c2.7-13.4,5-26.8,7.2-40.2c0.9-5.7-3.5-11.4-8.9-12.4c-6.1-1.2-12.5,1.9-13.7,7.6C170.8,83,168.6,96.8,166.4,109z M195.9,118.8
	c1.2,1.9,2.3,5.4,4.7,7.4c5.5,4.6,13.9,1.7,15.5-5.5c2.6-12.2,4.7-24.5,6.7-36.8c0.8-4.8-3.3-9.7-7.9-10.7c-5.6-1.1-11,1.7-12.1,7.2
	C200.3,92.6,198.3,104.9,195.9,118.8z M128.2,91.6c1.5-9.5,3.4-19.6,4.6-29.9c0.6-5.8-3.6-10.4-9.1-11.6c-5.3-1.1-10.8,2-12.9,7.4
	c-0.9,2.3-1.3,4.8-1.7,7.2c-1.5,8.6-2.9,17.2-4.1,24.3c-0.1-0.1,6.3-2.8,12.7-2.1C123.9,87.6,128.2,91.9,128.2,91.6z"/>
</svg>
