<?xml version="1.0" encoding="utf-8"?>
<!-- Generator: Adobe Illustrator 20.1.0, SVG Export Plug-In . SVG Version: 6.00 Build 0)  -->
<!DOCTYPE svg PUBLIC "-//W3C//DTD SVG 1.1//EN" "http://www.w3.org/Graphics/SVG/1.1/DTD/svg11.dtd">
<svg version="1.1" id="Layer_1" xmlns="http://www.w3.org/2000/svg" xmlns:xlink="http://www.w3.org/1999/xlink" x="0px" y="0px"
	 viewBox="0 0 300 300" style="enable-background:new 0 0 300 300;" xml:space="preserve">
<style type="text/css">
	.st0{fill:#d66b1d;}
</style>
<path fill="#d66b1d" class="st0" d="M262.4,146h-28c-2-43.4-37-78.3-80.4-80.4V37h-8v28.6c-43.4,2-78.3,37-80.4,80.4H37.6v8h28.1
	c2,43.4,37,78.3,80.4,80.4V263h8v-28.6c43.4-2,78.3-37,80.4-80.4h28V146z M226.4,146h-21.6c-2-27.1-23.7-48.8-50.8-50.8V73.6
	C193,75.7,224.3,107,226.4,146z M196.8,154c-1.9,22.7-20.1,40.9-42.8,42.8v-25.5h-8v25.5c-22.7-1.9-40.9-20.1-42.8-42.8h27.2v-8
	h-27.2c1.9-22.7,20.1-40.9,42.8-42.8v26.6h8v-26.6c22.7,1.9,40.9,20.1,42.8,42.8h-26.1v8H196.8z M146,73.6v21.6
	c-27.1,2-48.8,23.7-50.8,50.8H73.6C75.7,107,107,75.7,146,73.6z M73.6,154h21.6c2,27.1,23.7,48.8,50.8,50.8v21.6
	C107,224.3,75.7,193,73.6,154z M154,226.4v-21.6c27.1-2,48.8-23.7,50.8-50.8h21.6C224.3,193,193,224.3,154,226.4z"/>
</svg>
