<?xml version="1.0" encoding="utf-8"?>
<!-- Generator: Adobe Illustrator 20.1.0, SVG Export Plug-In . SVG Version: 6.00 Build 0)  -->
<!DOCTYPE svg PUBLIC "-//W3C//DTD SVG 1.1//EN" "http://www.w3.org/Graphics/SVG/1.1/DTD/svg11.dtd">
<svg version="1.1" id="Layer_1" xmlns="http://www.w3.org/2000/svg" xmlns:xlink="http://www.w3.org/1999/xlink" x="0px" y="0px"
	 viewBox="0 0 300 300" style="enable-background:new 0 0 300 300;" xml:space="preserve">
<style type="text/css">
	.st0{fill:#df8026;}
</style>
<g>
	<path fill="#df8026" class="st0" d="M238.8,256.2H61.2c-2.4,0-4.3-1.9-4.3-4.3c0-39.7,20.3-75.1,52.3-92.3c-15.4-12.3-24.3-30.8-24.3-50.7
		c0-35.9,29.2-65.1,65.1-65.1s65.1,29.2,65.1,65.1c0,20-9,38.4-24.3,50.7c32,17.1,52.3,52.5,52.3,92.3
		C243,254.3,241.1,256.2,238.8,256.2z M65.6,247.7h168.9c-1.5-37.3-22.2-69.7-53.7-83.4c-1.4-0.6-2.4-2-2.5-3.6
		c-0.1-1.6,0.6-3.1,2-3.9c16.5-10.4,26.4-28.3,26.4-47.8c0-31.2-25.4-56.6-56.6-56.6s-56.6,25.4-56.6,56.6
		c0,19.5,9.9,37.4,26.4,47.8c1.3,0.8,2.1,2.4,2,3.9c-0.1,1.6-1.1,3-2.5,3.6C87.8,178,67,210.4,65.6,247.7z"/>
</g>
</svg>
