<?xml version="1.0" encoding="utf-8"?>
<!-- Generator: Adobe Illustrator 20.1.0, SVG Export Plug-In . SVG Version: 6.00 Build 0)  -->
<!DOCTYPE svg PUBLIC "-//W3C//DTD SVG 1.1//EN" "http://www.w3.org/Graphics/SVG/1.1/DTD/svg11.dtd">
<svg version="1.1" id="Layer_1" xmlns="http://www.w3.org/2000/svg" xmlns:xlink="http://www.w3.org/1999/xlink" x="0px" y="0px"
	 viewBox="0 0 462 458" enable-background="new 0 0 462 458" xml:space="preserve">
<path fill="#df8026" d="M454,397c0-0.7,0.1-1.4,0.1-2.1c0-110.7,0-221.4,0-332.1c0-0.6-0.1-1.3-0.1-1.9c0.1,0.1,0.3,0.1,0.3,0.2
	c0,0.5,0,0.9,0,1.4c0,111,0,222,0,332.9C454.3,396,454.7,396.7,454,397z"/>
<g>
	<path fill="#df8026" d="M230.9,23.3c72-0.7,143.2,51,157.5,132.7c8.3,47.9-3.8,91.3-34.3,129.4c-38.2,47.7-76.4,95.3-114.6,143
		c-6.8,8.5-10.3,8.5-17.1,0c-39.4-49.2-79.3-97.8-117.9-147.6C31.2,186.1,84.9,47.4,202.6,26C211.9,24.3,221.5,24.2,230.9,23.3z
		 M231.3,390.2c1.3-2,1.8-2.9,2.5-3.8c32.4-40.5,64.9-80.8,97.1-121.4c23.2-29.2,32.7-62.2,27.7-99.6
		c-9.6-72.1-80.3-123-151.8-108.8c-94.2,18.6-136.3,128.8-78.2,205.1c11.2,14.7,22.9,28.9,34.5,43.3
		C185.4,332.9,207.8,360.8,231.3,390.2z"/>
	<path fill="#df8026" d="M231.4,128.2c31.2,0.1,55,24.4,54.8,56.1c-0.1,30.5-24.7,54.5-55.7,54.4c-31-0.1-54.9-24.6-54.8-56.2
		C175.9,151.9,200.2,128.1,231.4,128.2z"/>
</g>
</svg>
