<?xml version="1.0" encoding="utf-8"?>
<!-- Generator: Adobe Illustrator 20.1.0, SVG Export Plug-In . SVG Version: 6.00 Build 0)  -->
<!DOCTYPE svg PUBLIC "-//W3C//DTD SVG 1.1//EN" "http://www.w3.org/Graphics/SVG/1.1/DTD/svg11.dtd">
<svg version="1.1" id="Layer_1" xmlns="http://www.w3.org/2000/svg" xmlns:xlink="http://www.w3.org/1999/xlink" x="0px" y="0px"
	 viewBox="0 0 462 458" enable-background="new 0 0 462 458" xml:space="preserve">
<path fill="#df8026" d="M454,397c-148.4,0-296.9,0-445.3,0c0-112,0-224,0-336.1c148.4,0,296.9,0,445.3,0c0,0.6,0.1,1.3,0.1,1.9
	c0,110.7,0,221.4,0,332.1C454.1,395.7,454,396.3,454,397z M61.9,92.2c0.7,0.7,1.1,1.2,1.5,1.6c33,33.4,65.9,66.7,98.9,100.1
	c18.5,18.7,36.9,37.4,55.4,56.1c1.9,2,4.1,3.6,6.7,4.5c8.6,2.9,16.5,1.9,23.1-4.8c24.9-25.1,49.8-50.2,74.8-75.3
	c26.8-26.9,53.5-53.9,80.3-80.8c0.4-0.4,0.7-0.8,1.3-1.4C289.8,92.2,176,92.2,61.9,92.2z M61.8,365.7c0.5,0.1,0.8,0.2,1,0.2
	c112.7,0,225.4,0,338.2-0.1c0,0,0.1-0.1,0.1-0.1c0,0,0-0.1,0.1-0.3c-37.1-38-74.2-76-111.5-114.2c-0.6,0.7-1,1.2-1.5,1.7
	c-6.5,6.5-13,13.1-19.5,19.6c-1.4,1.4-2.9,2.8-4.6,4c-10.7,8-22.8,11.3-36.1,10.2c-13-1.1-24.1-6.3-33.1-15.7
	c-6.2-6.5-12.6-12.8-18.9-19.2c-0.4-0.4-0.9-0.8-1.4-1.3C136.9,289,99.4,327.3,61.8,365.7z M152.7,228.5c-37.6-38-75-75.9-112.6-114
	c0,76.5,0,152.6,0,229C77.7,305,115.1,266.8,152.7,228.5z M423.1,117.1c-37.3,37.6-74.4,74.9-111.5,112.2
	c37.2,38,74.2,75.9,111.5,114.1C423.1,267.8,423.1,192.7,423.1,117.1z"/>
<path fill="#df8026" d="M454,397c0-0.7,0.1-1.4,0.1-2.1c0-110.7,0-221.4,0-332.1c0-0.6-0.1-1.3-0.1-1.9c0.1,0.1,0.3,0.1,0.3,0.2
	c0,0.5,0,0.9,0,1.4c0,111,0,222,0,332.9C454.3,396,454.7,396.7,454,397z"/>
</svg>
