<?xml version="1.0" encoding="utf-8"?>
<!-- Generator: Adobe Illustrator 20.1.0, SVG Export Plug-In . SVG Version: 6.00 Build 0)  -->
<!DOCTYPE svg PUBLIC "-//W3C//DTD SVG 1.1//EN" "http://www.w3.org/Graphics/SVG/1.1/DTD/svg11.dtd">
<svg version="1.1" id="Layer_1" xmlns="http://www.w3.org/2000/svg" xmlns:xlink="http://www.w3.org/1999/xlink" x="0px" y="0px"
	 viewBox="0 0 462 458" enable-background="new 0 0 462 458" xml:space="preserve">
<path fill="#d66b1d" d="M454,397c0-0.7,0.1-1.4,0.1-2.1c0-110.7,0-221.4,0-332.1c0-0.6-0.1-1.3-0.1-1.9c0.1,0.1,0.3,0.1,0.3,0.2
	c0,0.5,0,0.9,0,1.4c0,111,0,222,0,332.9C454.3,396,454.7,396.7,454,397z"/>
<path fill="#d66b1d" d="M140.1,165.2h39v-37.9c0-16.7,0.4-42.5,12.6-58.4c12.8-16.9,30.3-28.4,60.5-28.4c49.2,0,69.9,7,69.9,7l-9.7,57.7
	c0,0-16.2-4.7-31.4-4.7c-15.2,0-28.7,5.4-28.7,20.6v44h62.2l-4.3,56.4h-57.8v195.9H179V221.6h-39V165.2z"/>
</svg>
