<svg id="Layer_1" data-name="Layer 1" xmlns="http://www.w3.org/2000/svg" viewBox="0 0 462 458"><title>Artboard 1</title><path fill="#df8026" d="M214.48,16.67c49.37-4.92,100.61,6.39,143.5,35.9,157.81,108.6,90.76,369.05-99.83,388.9C96,458.35-24.26,282.91,41.63,136.93,73.63,66,142,23.88,214.48,16.67Zm20.13,386.12c95.51.24,175-78.91,175.18-174.46S330.94,53.4,235.33,53.21,60.42,132,60.21,227.62,139,402.55,234.62,402.79Z"/><path fill="#df8026" d="M215.29,169c0-18.17-.19-36.35.07-54.51.17-12.35,5.29-21.69,18.87-22,14.58-.38,20.23,9.1,20.34,22.36.22,28.47.7,57-.12,85.4-.39,13.68,2.73,24.23,13.52,33.43,11.95,10.18,22.45,22.06,33.56,33.23,9.59,9.65,11.64,20.4,1.32,30.15-9.59,9.05-19.91,6.67-28.88-2.3-16.7-16.7-34-32.88-49.74-50.44-5.07-5.65-8-14.8-8.59-22.59-1.25-17.48-.39-35.1-.39-52.67Z"/></svg>