<?xml version="1.0" encoding="utf-8"?>
<!-- Generator: Adobe Illustrator 20.1.0, SVG Export Plug-In . SVG Version: 6.00 Build 0)  -->
<!DOCTYPE svg PUBLIC "-//W3C//DTD SVG 1.1//EN" "http://www.w3.org/Graphics/SVG/1.1/DTD/svg11.dtd">
<svg version="1.1" id="Layer_1" xmlns="http://www.w3.org/2000/svg" xmlns:xlink="http://www.w3.org/1999/xlink" x="0px" y="0px"
	 viewBox="0 0 462 458" enable-background="new 0 0 462 458" xml:space="preserve">
<path fill="#FFFFFF" d="M454,397c0-0.7,0.1-1.4,0.1-2.1c0-110.7,0-221.4,0-332.1c0-0.6-0.1-1.3-0.1-1.9c0.1,0.1,0.3,0.1,0.3,0.2
	c0,0.5,0,0.9,0,1.4c0,111,0,222,0,332.9C454.3,396,454.7,396.7,454,397z"/>
<path d="M371.9,403c-94,0-187.9,0-281.9,0c-17-6-28.5-17-33.1-34.8c0-93.4,0-186.8,0-280.1C62.5,71.5,73.5,60.5,90.1,55
	c94,0,187.9,0,281.9,0c16.5,5.5,27.5,16.6,33.1,33.1c0,93.4,0,186.8,0,280.1c-1.6,4-3,8-4.7,11.8C394.7,392.5,383.5,398,371.9,403z
	 M334.4,202c6.7,32.1,2.5,61.8-16.4,88.2c-18.9,26.4-44.8,41.7-77.2,44.7c-30.3,2.8-57.4-5.8-80.2-26.3
	c-31.9-28.7-41.2-64.9-33.3-106.5c-10.8,0-20.4,0-30.7,0c0,3.6,0,6.5,0,9.4c0,44.3,0,88.7,0,133c0,14.2,4.5,18.8,18.6,18.8
	c77.1,0,154.2,0,231.3,0c14.2,0,18.9-4.5,18.9-18.5c0-44.6,0-89.3,0-133.9c0-2.8-0.2-5.6-0.4-9C354.6,202,345,202,334.4,202z
	 M298.5,228.8c-0.2-37.2-30.3-67.3-67.5-67.3c-37.2-0.1-67.4,30-67.5,67.2c-0.1,37.5,30.4,68.1,67.9,67.8
	C268.4,296.3,298.7,265.8,298.5,228.8z M365.3,129.3c0-6.9,0.2-13.9-0.1-20.8c-0.4-8.2-5.6-13.6-13.8-13.8
	c-13.3-0.3-26.6-0.3-39.9,0c-8.6,0.2-14.1,5.7-14.3,14.2c-0.3,13-0.3,26,0,39.1c0.2,8.9,5.9,14.6,14.8,14.8
	c12.7,0.3,25.5,0.2,38.2,0c9.4-0.2,14.8-5.7,15.1-15.3C365.5,141.5,365.3,135.4,365.3,129.3z"/>
</svg>
