<?xml version="1.0" encoding="utf-8"?>
<!-- Generator: Adobe Illustrator 20.1.0, SVG Export Plug-In . SVG Version: 6.00 Build 0)  -->
<!DOCTYPE svg PUBLIC "-//W3C//DTD SVG 1.1//EN" "http://www.w3.org/Graphics/SVG/1.1/DTD/svg11.dtd">
<svg version="1.1" id="Layer_1" xmlns="http://www.w3.org/2000/svg" xmlns:xlink="http://www.w3.org/1999/xlink" x="0px" y="0px"
	 viewBox="0 0 462 458" enable-background="new 0 0 462 458" xml:space="preserve">
<path fill="#FFFFFF" d="M454,397c0-0.7,0.1-1.4,0.1-2.1c0-110.7,0-221.4,0-332.1c0-0.6-0.1-1.3-0.1-1.9c0.1,0.1,0.3,0.1,0.3,0.2
	c0,0.5,0,0.9,0,1.4c0,111,0,222,0,332.9C454.3,396,454.7,396.7,454,397z"/>
<path d="M102.8,13.6c14.7,3.5,25.6,12.8,35.8,23.4c16.3,17,32.9,33.7,49.9,50c18.9,18.1,22.5,47.6,0,67.2
	c-12,10.4-22.7,22.3-34.2,33.8c32.5,46.3,71.3,85,117.5,117.6c11.7-11.7,23.7-22.7,34.4-34.8c19.2-21.7,48.2-18.3,66-0.1
	c19.2,19.6,39.4,38.4,58,58.6c7.3,7.9,15,21.1,16,31.9c0.8,8.6-2.6,17.3-7.8,24.3c-19.4,26.5-52.2,54-85.7,58.1
	c-41.2,5-84.1-12.6-119.6-31.9c-52.3-28.6-96.5-67.2-134.8-112.4c-42.6-50.3-84.6-117.8-82.6-186.4C16.4,89.9,28,69.4,42.4,52.2
	C52.5,40.2,73.2,13.6,91,13.6C94.9,13.6,98.9,13.6,102.8,13.6z M349.2,418c11.6,0.5,29-5.9,42.8-21.6c6.7-7.6,14.2-14.3,21.3-21.5
	c7.8-7.9,9-15.8,1.5-23.6c-21.2-22-42.8-43.6-64.8-64.9c-7.7-7.5-15.3-6.5-23,1.1c-11.8,11.6-23.4,23.4-35.1,35.1
	c-11.3,11.2-23.4,12.5-36.3,3.5c-47.7-33.5-88.4-74.2-121.9-121.9c-9.1-13-7.9-24.9,3.3-36.3c11.4-11.6,23-23,34.5-34.5
	c8.8-8.9,9.1-16.1,0.5-25.5c-4.9-5.4-10.2-10.4-15.4-15.6c-15.1-15.1-30-30.3-45.3-45.2c-9.9-9.7-17.7-9.4-27.4,0.3
	c-8.3,8.3-16.6,16.7-25,25c-10.8,10.5-15.6,23.6-16.7,38.3c-1.9,24.3,3.4,47.5,13.2,69.4c43.3,97.6,114,169.1,208.7,217.3
	C287.8,409.6,313.2,417.3,349.2,418z"/>
<path fill="#FFFFFF" d="M373,614c8.1-2.8,17.4-3.8,23.9-8.7c10.5-7.9,19.3-18.1,28.5-27.7c2-2.1,2.4-5.7,3.6-8.6c0,15,0,30,0,45
	C410.3,614,391.7,614,373,614z"/>
</svg>
