<?xml version="1.0" encoding="utf-8"?>
<!-- Generator: Adobe Illustrator 20.1.0, SVG Export Plug-In . SVG Version: 6.00 Build 0)  -->
<!DOCTYPE svg PUBLIC "-//W3C//DTD SVG 1.1//EN" "http://www.w3.org/Graphics/SVG/1.1/DTD/svg11.dtd">
<svg version="1.1" id="Layer_1" xmlns="http://www.w3.org/2000/svg" xmlns:xlink="http://www.w3.org/1999/xlink" x="0px" y="0px"
	 viewBox="0 0 300 300" style="enable-background:new 0 0 300 300;" xml:space="preserve">
<g>
	<path d="M57.8,189.6c-0.3-11.3,3.3-21.4,9.9-30.4c4-5.5,9.1-9.9,15.1-13.4c11.7-6.8,23.5-13.7,35.2-20.5
		c12.6-7.3,25.2-14.5,37.9-21.8c5.8-3.3,11.5-6.7,17.3-10c1.4-0.8,2.8-1,4.5-0.5c8.5,2.4,17,4.6,25.4,6.9c6.3,1.7,12.5,3.3,18.8,4.9
		c2.3,0.6,3.1,2.6,4.1,4.3c5.1,8.8,10.2,17.6,15.3,26.5c0.3,0.5,0.8,0.8,0.9,1.3c0.2,0.7,0.4,1.8,0,2.2c-2.5,2.4-5.2,4.8-7.8,7.1
		c-1.8,1.6-3.7,3.2-5.6,4.8c-7.6,6.8-15.1,13.6-22.7,20.3c-1.7,1.5-3.4,3-5,4.6c-0.5,0.5-0.8,1.7-0.5,2.2c3,5.5,4.9,11.3,5.7,17.5
		c1.1,8.3,0.4,16.3-2.4,24.1c-3.2,8.9-8.4,16.3-15.8,22.2c-7.4,6-15.9,9.8-25.3,10.8c-7.2,0.8-14.5,0.2-21.7-1.9
		c-11.3-3.3-22.8-6.1-34.2-9.3c-7.9-2.2-15.9-3.9-23.3-7.9c-8.8-4.7-15.3-11.3-20-20c-3-5.6-4.8-11.5-5.9-17.7
		C57.5,194,57.8,191.8,57.8,189.6z M66.6,191.9c0.6,2.7,1.1,7.5,2.7,11.9c4.4,12.2,13,20.6,25.3,24.6c6.7,2.2,13.6,3.9,20.5,5.8
		c0.4,0.1,0.8-0.1,1.2-0.1c-0.1-0.4-0.2-0.8-0.4-1.2c-2-3.6-4.2-7-5.9-10.7c-3.8-8.5-4.9-17.4-3.5-26.6c0.9-6.2,2.8-12.3,6.1-17.8
		c3.3-5.7,7.3-10.9,12.7-14.7c6.3-4.3,12.9-8.2,19.5-12c10.7-6.3,21.5-12.4,32.2-18.6c10.9-6.3,21.8-12.6,32.7-19
		c0.5-0.3,0.9-0.8,1.4-1.3c-0.6-0.4-1.1-0.9-1.7-1.1c-9.9-2.7-19.7-5.3-29.6-8.1c-2.4-0.7-4.4-0.3-6.4,0.9c-1.4,0.9-2.8,1.7-4.2,2.5
		c-6.4,3.8-12.8,7.5-19.3,11.2c-6.5,3.8-13.1,7.4-19.6,11.2c-6.4,3.7-12.8,7.4-19.2,11.1c-6.3,3.7-12.6,7.4-19,11
		c-5.6,3.2-11.1,6.6-15.4,11.7C70.1,170.6,67.1,179.7,66.6,191.9z"/>
	<path d="M122,92.4c0.2,2.2-1.5,4.5-4.5,5.5c-1.9,0.6-4.8-0.8-6.1-3c-4.6-7.9-9.1-15.9-13.7-23.8c-2.4-4.1-4.8-8.2-7.2-12.3
		c-1.6-2.7-0.8-6.4,1.7-7.9c2.9-1.7,6.3-0.6,7.7,1.9c4.2,7.4,8.5,14.7,12.7,22c2.8,4.9,5.7,9.7,8.5,14.6
		C121.6,90.4,121.7,91.4,122,92.4z"/>
	<path d="M105.3,105.7c-0.4,2.4-1.3,4.1-3.3,5c-2.5,1.2-4.8,0.4-6.8-1.2c-6.9-5.7-13.7-11.5-20.5-17.3c-1.4-1.2-2.9-2.4-4.2-3.8
		c-2.1-2.1-2-5.7,0-7.7c2-2.1,5.6-2,7.9-0.1c5.8,5,11.8,9.9,17.6,14.9c2.4,2.1,4.9,4.1,7.1,6.4C104.1,102.8,104.6,104.4,105.3,105.7
		z"/>
	<path d="M130.4,46.9c3.7,0,5.2,1.5,5.9,5.5c1,6.2,2.1,12.4,3.2,18.7c0.8,4.3,1.6,8.7,2.4,13c0.4,2.2-1.7,5.1-4.2,5.8
		c-2.1,0.7-5.3-0.7-6.1-2.9c-0.8-2.3-1.2-4.8-1.7-7.3c-1.2-6.3-2.3-12.7-3.4-19c-0.5-2.6-1.1-5.1-1.4-7.7
		C124.5,49.5,127,46.9,130.4,46.9z"/>
	<path d="M126,138.4c1.5-0.9,2.6-1.6,3.6-2.2c3.8-2.3,7.5-4.6,11.4-6.7c1-0.6,2.5-0.8,3.7-0.5c5.3,1.2,10.5,2.6,15.8,4
		c0.6,0.2,1.1,0.6,2.1,1.1c-1.6,1-2.8,2-4.1,2.7c-3.2,1.9-6.6,3.5-9.8,5.5c-2.2,1.4-4.2,1.6-6.7,0.8c-4.4-1.4-8.8-2.5-13.2-3.7
		C127.9,139.2,127.2,138.9,126,138.4z"/>
</g>
</svg>
