<?xml version="1.0" encoding="utf-8"?>
<!-- Generator: Adobe Illustrator 20.1.0, SVG Export Plug-In . SVG Version: 6.00 Build 0)  -->
<!DOCTYPE svg PUBLIC "-//W3C//DTD SVG 1.1//EN" "http://www.w3.org/Graphics/SVG/1.1/DTD/svg11.dtd">
<svg version="1.1" id="Layer_1" xmlns="http://www.w3.org/2000/svg" xmlns:xlink="http://www.w3.org/1999/xlink" x="0px" y="0px"
	 viewBox="0 0 300 300" style="enable-background:new 0 0 300 300;" xml:space="preserve">
<path d="M201.3,80.8c0.3,0,0.6-0.1,0.9-0.1c9.4-0.9,17,6.8,17.1,15.9c0,2.9,0,5.8,0,9c0.6-0.2,0.9-0.3,1.2-0.5
	c3.2-1.6,6.8-2.1,9.9-1.1c7.3,2.4,11.4,6.9,11.9,15c0.3,5.1,0.1,10.2,0.1,15.5c2.6,0,4.9-0.3,7.2,0.1c2.7,0.4,5.4,1,7.8,2.1
	c7.3,3.3,9.9,12.8,6.7,19.9c-2.6,5.7-8.5,9-14.6,9.1c-2.3,0-4.6,0-7,0c0,2.1,0,3.9,0,5.7c-0.1,4.2,0,8.4-0.5,12.6
	c-1,8.2-10.1,14-17.7,12.1c-1.6-0.4-3.1-0.8-4.8-1.3c0,2.9,0,5.7,0,8.4c-0.1,9.1-7.4,17.1-17,16.3c-8.6-0.7-14.3-8.4-14.2-16.7
	c0.1-11.5,0-23,0-34.5c0-0.7,0-1.5,0-2.3c-25.7,0-51.2,0-76.9,0c0,1,0,1.9,0,2.8c0,11.5,0,23,0,34.5c0,8.5-6.2,16-15.1,16.3
	c-9.1,0.4-15.8-7.1-16.1-15.8c-0.1-3,0-5.9,0-9.2c-0.6,0.3-0.9,0.4-1.2,0.5c-9.1,4.3-20.4-1.7-21.5-11.6c-0.5-4.2-0.3-8.5-0.4-12.8
	c0-1.6,0-3.2,0-4.9c-2.6,0-4.9,0.1-7.1,0c-18.2-0.9-21.9-28.3-2.6-30.7c3.2-0.4,6.4-0.5,9.7-0.7c0-5-0.1-9.9,0-14.9
	c0.2-10.7,10-17.5,19.2-15.1c1.2,0.3,2.3,0.8,3.8,1.4c0-3,0-5.7,0-8.5c0.1-9,6.9-16.8,16.3-16.4c8.5,0.3,14.7,7.6,14.8,15.9
	c0.1,11.8,0,23.6,0,35.5c0,0.8,0,1.6,0,2.3c25.8,0,51.2,0,76.9,0c0-1,0-1.9,0-2.8c0-11.6,0-23.2,0-34.8
	C188.3,89,193.6,82.1,201.3,80.8z M211.4,150.1c0-6.9,0-13.8,0-20.7c0-6.8,0.1-13.7,0.1-20.5c0-4.7,0.1-9.5-0.3-14.2
	c-0.3-4.3-5.2-7.2-9.3-5.9c-4.1,1.3-6,4.1-6,8.8c0,6.8,0.1,13.5,0,20.3c0,28.3,0,56.6,0,84.9c0,1.4,0.3,2.8,0.8,4.1
	c1.2,3.3,5.1,5.4,8.2,4.8c4.2-0.8,6.6-4.1,6.6-8.6c-0.1-6.6-0.1-13.2-0.1-19.8C211.3,172.2,211.4,161.1,211.4,150.1z M103.6,150.3
	C103.6,150.3,103.6,150.3,103.6,150.3c0-4.6,0-9.2,0-13.8c0-13.2,0.1-26.5,0-39.7c0-2.9-0.9-5.6-3.6-7.2C94,86.3,88,90,88,97
	c0,13.8,0,27.7,0,41.5c0,10.9,0.1,21.8,0.1,32.7c0,10.3-0.1,20.6-0.1,30.9c0,1.6,0.2,3.2,0.6,4.6c1,3.2,4.9,5.6,8.1,5
	c4.2-0.8,6.8-3.5,6.8-8.6C103.6,185.5,103.6,167.9,103.6,150.3z M111.4,157.7c25.7,0,51.1,0,76.6,0c0-5.2,0-10.2,0-15.3
	c-25.6,0-51.1,0-76.6,0C111.4,147.5,111.4,152.4,111.4,157.7z M219.3,150c0,10.2,0,20.3,0,30.5c0,0.9,0.1,2,0.4,2.8
	c1.2,3.4,4.9,5.8,7.9,5.3c4.3-0.8,7-3.8,7.1-8.2c0-20.3,0.1-40.5-0.1-60.8c0-5.6-3.5-8.1-7.9-8.1c-3.9-0.1-7.6,3-7.5,8.3
	C219.5,129.8,219.3,139.9,219.3,150z M80.2,150.2c0-10.5,0-20.9,0-31.4c0-3.6-3.1-7-7.1-7.4c-3.1-0.4-7.1,2.3-7.8,5.6
	c-0.4,1.7-0.5,3.6-0.5,5.3c0,19.2,0,38.4,0,57.6c0,5.1,3.4,8.9,7.9,8.7c3.6-0.2,7.7-3.2,7.5-8.6C80,170.1,80.2,160.2,80.2,150.2z
	 M57,142.2c-3.3,0.2-6.5,0.1-9.7,0.5c-3.1,0.4-5.6,4.1-5.6,7.5c0,3.4,2.7,6.9,5.8,7.3c3.1,0.3,6.3,0.1,9.6,0.1c0-4.5,0-9,0-13.5
	C57.1,143.5,57.1,142.9,57,142.2z M242.5,157.8c2.3,0,4.4,0,6.5,0c0.8,0,1.6-0.2,2.4-0.3c3.5-0.5,6.3-3.6,6.3-7.2
	c0-3.8-2-6.9-5.9-7.6c-3-0.6-6.2-0.1-9.4-0.1C242.5,147.6,242.5,152.5,242.5,157.8z"/>
</svg>
