<?xml version="1.0" encoding="utf-8"?>
<!-- Generator: Adobe Illustrator 20.1.0, SVG Export Plug-In . SVG Version: 6.00 Build 0)  -->
<!DOCTYPE svg PUBLIC "-//W3C//DTD SVG 1.1//EN" "http://www.w3.org/Graphics/SVG/1.1/DTD/svg11.dtd">
<svg version="1.1" id="Layer_1" xmlns="http://www.w3.org/2000/svg" xmlns:xlink="http://www.w3.org/1999/xlink" x="0px" y="0px"
	 viewBox="0 0 300 300" style="enable-background:new 0 0 300 300;" xml:space="preserve">
<g>
	<path fill="#d66b1d" d="M101.5,241c-0.3,0-0.5,0-0.8,0c-1.5-0.2-4.4-1-6.3-4.9c-1.7-3.5-2.9-7.1-3.7-9.9c-6-20.6-8.4-42.1-6.9-63.8
		c0.4-5.3,1.2-10.6,1.9-15.6c0.4-2.3,0.7-4.6,1-6.9l0.1-0.8c0.1-0.7,0.2-1.3,0.2-1.9c0.3-5.2,0.3-5.2-4.5-7.5
		c-6.9-3.3-13.8-6.7-20.7-10.1l-11.3-5.5l-0.1-2.7C50.3,98.7,58.6,90,71.9,89c8.2-0.6,16.4-0.6,24.4-0.6l2.9,0c0.1,0,0.2,0,0.3,0
		c0,0,0-0.1,0.1-0.1c1-2.4,2.1-4.8,3.2-7.1c1.1-2.4,2.2-4.8,3.2-7.2c6.2-14.5,22.6-17.8,34.9-12.7c5,2.1,7.7,6.7,7.9,13.6
		c0.2,4.4-0.1,8.5-0.7,12.3c-0.4,2.4-1,4.8-1.7,7.1c7.2-0.2,14,1.3,20.6,2.7l2.6,0.6c13.6,2.9,27.4,6.1,40.8,9.1l8.8,2
		c1.6,0.4,3,0.9,4.4,1.4c0.8,0.3,1.5,0.6,2.3,0.8c16.6,5.2,24.9,23.7,23.4,38.7c-1.9,19.2-11.9,33.9-20.3,44.6
		c-3.8,4.8-8.1,9.2-12.2,13.2c-7.5,7.4-17.2,12-30.6,14.6c-15.3,2.9-27.9,3.9-39.6,3.3c-5.6-0.3-11.1-1.5-15.9-2.6
		c-2.5-0.6-4.7-2.5-5.9-5.3c-1.3-3.1-1.2-6.5,0.2-8.9c1.3-2.2,3.7-2.8,5-3c2.2-0.3,4.5-0.6,6.7-0.9c2.2-0.3,4.4-0.6,6.6-0.9
		c10.2-1.5,18.8-7,25.8-12.1c10.6-7.8,18.8-16.5,25-26.6c3.2-5.3,4.7-10.4,4.5-15.7c-19.4-3.2-41.9-7-65.2-11
		c-5.4,10.7-9.5,22.4-12.5,35.8c-2.6,11.7-3.4,23.7-4,34.9c-0.3,5.9-1.3,12-3,18.3c-1.1,4-3.7,7.5-6.2,10.4
		C105.6,240.4,103.2,241,101.5,241z M102.6,232.4L102.6,232.4L102.6,232.4z M100.8,232.3L100.8,232.3L100.8,232.3z M59.6,108.4
		l6.3,3.1c6.9,3.4,13.7,6.8,20.6,10.1c8.6,4.2,10.1,6.6,9.5,16.1c-0.1,0.9-0.2,1.8-0.3,2.7l-0.1,0.7c-0.3,2.4-0.7,4.7-1,7.1
		c-0.8,5.1-1.5,10-1.8,14.9c-1.4,20.7,0.8,41.1,6.6,60.7c0.6,2.1,1.5,4.8,2.6,7.3c1.6-2,3.1-4.1,3.6-6.1c1.5-5.7,2.5-11.2,2.7-16.4
		c0.6-11.6,1.4-24,4.2-36.4c3.2-14.3,7.6-26.8,13.4-38.3c0.7-1.4,2.8-5.5,8.5-4.5c24.1,4.2,47.5,8.1,67.2,11.3
		c3.7,0.6,5.7,2.9,6,6.8c0.6,7.6-1.3,14.9-5.8,22.2c-6.8,11.1-15.8,20.7-27.4,29.2c-7.9,5.8-17.6,11.9-29.7,13.7
		c-2.2,0.3-4.5,0.6-6.7,0.9c-1.6,0.2-3.3,0.5-4.9,0.7c0,0,0,0,0,0.1c4.4,1,9.3,2.1,13.9,2.3c11.1,0.6,23-0.4,37.5-3.2
		c11.5-2.2,19.8-6,26-12.1c3.9-3.8,7.9-7.9,11.4-12.4c11.4-14.5,17.1-26.8,18.5-39.9c1.1-11.4-5-25.5-17.2-29.3
		c-0.9-0.3-1.9-0.6-2.8-1c-1.1-0.4-2.2-0.8-3.2-1.1l-8.9-2c-13.3-3.1-27-6.2-40.6-9.1l-2.7-0.6c-6.9-1.5-13.4-2.9-20-2.5
		c-1.8,0.1-3.4-0.4-4.5-0.7c-0.3-0.1-0.6-0.2-0.9-0.3l-4.5-1l1.2-4.5c0.4-1.3,0.7-2.5,1.1-3.8c0.8-2.5,1.5-4.9,1.8-7.2
		c0.5-3.2,0.7-6.8,0.6-10.6c-0.2-4.7-1.8-5.4-2.5-5.7c-7-2.9-18.8-2.4-23.2,8c-1.1,2.5-2.2,5-3.3,7.4c-1,2.3-2.1,4.6-3.1,6.9
		c-1.6,3.7-4.4,5.5-8.5,5.5l-2.9,0c-7.8,0-15.9,0-23.8,0.6C64.9,98.5,60.5,102.2,59.6,108.4z M132.8,212.8L132.8,212.8z M99.7,88.4
		L99.7,88.4L99.7,88.4z"/>
</g>
</svg>
