<?xml version="1.0" encoding="utf-8"?>
<!-- Generator: Adobe Illustrator 20.1.0, SVG Export Plug-In . SVG Version: 6.00 Build 0)  -->
<!DOCTYPE svg PUBLIC "-//W3C//DTD SVG 1.1//EN" "http://www.w3.org/Graphics/SVG/1.1/DTD/svg11.dtd">
<svg version="1.1" id="Layer_1" xmlns="http://www.w3.org/2000/svg" xmlns:xlink="http://www.w3.org/1999/xlink" x="0px" y="0px"
	 viewBox="0 0 300 300" style="enable-background:new 0 0 300 300;" xml:space="preserve">
<path fill="#d66b1d" d="M176,251.1c-13,0-26.1,0-39.1,0c-3.7-0.5-7.5-1-11.2-1.6c-9.1-1.4-16-5.5-18.2-15c-1.6-6.8-2.7-13.7-4.3-20.5
	c-0.5-1.9-1.5-4.6-3-5.3c-22.6-10.7-36.6-35.6-44-58.5c-4.9-15.2-4.6-36.6,12.7-43.8c4.4-1.8,9.3-2.2,14.4-3.3c0-2.7-0.1-5.8,0-9
	c0.3-9.3,1.8-18.4,6.8-26.5c7-11.4,18.2-16,30.6-18.5c16-3.1,33.2-3.5,49.4-2.2c16.3,1.2,35.1,4.8,45.9,18.3
	c14.1,17.6,12.6,42.1,9.7,63.1c-3,22.4-5.5,46.8-15.6,67.3c-0.7,1.5-1,3.3-1.2,4.9c-0.9,10-1.1,20.1-2.7,30
	c-1.6,9.8-2.2,15.3-16.7,18.4C185,249.8,180.5,250.4,176,251.1z M141.2,207.7c9.1-0.2,18.3-1.2,27-2.1c17.2-1.6,33.5-4.2,38.1-23.4
	c2.7-11.5,7.4-23.1,9.2-34.8c3-19.5,4.2-38.2,2.4-57.9c-1.1-12-8-23.2-19.8-27.9c-25-10.1-57.3-8.5-83-1.9
	c-12.3,3.1-19.4,11.6-21.9,24c-2.6,12.8-1.5,25.6,0.3,38.3c1.8,12.2,4.6,24.3,6.6,36.5c0.2,1.5-1.5,4.4-2.7,4.7
	c-1.5,0.4-3.7-1.1-5.4-2.2c-0.7-0.5-0.9-1.9-1.1-2.9c-2.2-13.6-4.5-27.3-6.5-40.9c-0.6-3.8-1.8-5.3-5.7-4.8
	c-1.9,0.3-3.9,0.8-5.6,1.6c-9.7,4.5-12.8,15-10.5,25.8c3.2,15.2,10.3,28.9,19,41.6c7.8,11.3,18.5,18.4,31.6,22.8
	C121.9,207.2,131.5,207.9,141.2,207.7z M200.7,208c-29.7,8.4-58.9,10.3-89,5.8c1.5,6.2,3.1,12.3,4.3,18.5c0.9,4.7,3.8,7,8.2,8
	c2.3,0.5,4.6,1.1,7,1.3c6.5,0.4,12.9,0.8,19.4,0.8c9.1,0.1,18.2,0.1,27.3-0.3c4.4-0.2,9-1.1,13.2-2.5c2.2-0.7,4.9-3.1,5.3-5.1
	C198.1,225.7,199.3,216.9,200.7,208z"/>
</svg>
