<?xml version="1.0" encoding="utf-8"?>
<!-- Generator: Adobe Illustrator 20.1.0, SVG Export Plug-In . SVG Version: 6.00 Build 0)  -->
<!DOCTYPE svg PUBLIC "-//W3C//DTD SVG 1.1//EN" "http://www.w3.org/Graphics/SVG/1.1/DTD/svg11.dtd">
<svg version="1.1" id="Layer_1" xmlns="http://www.w3.org/2000/svg" xmlns:xlink="http://www.w3.org/1999/xlink" x="0px" y="0px"
	 viewBox="0 0 300 300" style="enable-background:new 0 0 300 300;" xml:space="preserve">
<path fill="#df8026" d="M252.2,150.1c0,56.7-45.8,102.5-102.3,102.4c-56.5,0-102.1-46.1-102-102.8c0.2-57,45.9-102.4,103-102.3
	C206.6,47.5,252.2,93.7,252.2,150.1z M63.5,149.9c-0.1,47.8,38.9,87,86.5,86.9c47.5-0.1,86.4-38.9,86.4-86.4
	c0.1-48.1-38.6-87.1-86.5-87.1C102.4,63.3,63.6,102.1,63.5,149.9z"/>
<path fill="#df8026" d="M184.3,117.8c-9.6,0-18.9,0-28.5,0c0,24.7,0,49.3,0,74c-3.8,0-7.3,0-11.2,0c0-24.5,0-49.1,0-73.9c-9.8,0-19.2,0-28.8,0
	c0-3.4,0-6.4,0-9.7c22.8,0,45.6,0,68.5,0C184.3,111.3,184.3,114.4,184.3,117.8z"/>
</svg>
