<?xml version="1.0" encoding="utf-8"?>
<!-- Generator: Adobe Illustrator 20.1.0, SVG Export Plug-In . SVG Version: 6.00 Build 0)  -->
<!DOCTYPE svg PUBLIC "-//W3C//DTD SVG 1.1//EN" "http://www.w3.org/Graphics/SVG/1.1/DTD/svg11.dtd">
<svg version="1.1" id="Layer_1" xmlns="http://www.w3.org/2000/svg" xmlns:xlink="http://www.w3.org/1999/xlink" x="0px" y="0px"
	 viewBox="0 0 168 159" style="enable-background:new 0 0 168 159;" xml:space="preserve">
<g>
	<path fill="#d66b1d" d="M99.8,135c-9.7,0-19.3,0-29,0c10.7-17.2,21.2-34.4,32.1-51.4c2-3.2,1.9-5.3-0.1-8.4C93,60.1,83.4,44.7,73.9,29.4
		c-1-1.6-1.4-3.6-2.1-5.4c9.3,0,18.7,0,28,0c10.6,17.1,21.2,34.3,32,51.3c2,3.1,2,5.2,0,8.3C121,100.7,110.4,117.9,99.8,135z"/>
	<path fill="#d66b1d" d="M34.8,24c9.3,0,18.7,0,28,0C74,41.8,85.2,59.5,96.3,77.4c0.7,1.1,0.7,3.2,0,4.3C85.2,99.5,74,117.2,62.8,135
		c-9.3,0-18.7,0-28,0c0.8-1.6,1.4-3.3,2.3-4.8c10.5-16.9,21.1-33.7,31.7-50.7c-6.7-10.8-13.5-21.4-20.1-32.1
		C44,39.7,39.4,31.8,34.8,24z"/>
</g>
</svg>
